<svg version="1.1" id="Layer_1" xmlns="http://www.w3.org/2000/svg" xmlns:xlink="http://www.w3.org/1999/xlink" x="0px" y="0px" viewBox="0 0 800 180" style="enable-background:new 0 0 800 180; fill: #d02c2f" xml:space="preserve">
  <circle cx="90.5" cy="90" r="85.5"></circle>
  <path fill="#FFF" d="M124.6,103.3l-1.4,1.4L103,124.2l16.3,16.3c3.6,3.6,3.6,9.3,0,12.9s-9.3,3.6-12.9,0l-48.8-48.8
    c-9.1-9.1-14.4-20.5-14.7-32c-0.3-12.2,4.7-23.9,14.7-33.9c9.6-9.6,21-14.7,32.9-14.7s23.3,5.1,32.9,14.7
    C145.9,61.3,139.8,88.1,124.6,103.3z"></path>
  <path d="M88,43.1c-16.2,1.5-28.1,15.9-26.6,32.1c1.4,16.3,32.5,35.9,32.5,35.9s27.2-24.7,25.8-41
    C118.4,53.9,104.2,41.8,88,43.1C88,43.1,88,43.1,88,43.1z M101.3,80.5c-5.1,6-14,6.8-20.1,1.7c-6-5.1-6.8-14-1.7-20.1
    c5.1-6,14-6.8,20.1-1.7C105.6,65.4,106.4,74.4,101.3,80.5C101.3,80.4,101.3,80.4,101.3,80.5z"></path>
  <path d="M252,55.1c6-0.2,11.8,2.4,15.6,7c3.6,4.4,5.5,9.9,5.3,15.5c0.2,5.5-1.7,10.9-5.3,15.1
    c-3.9,4.5-9.4,6.8-16.2,6.8h-17v25.3h-14.7V76.3c0-11.7,9.5-21.1,21.1-21.1l0,0L252,55.1z M248.3,87.8c3.6,0.2,7.1-1.2,9.5-3.9
    c1.4-1.6,2.2-3.5,2.4-5.6c0.3-2.9-0.8-5.8-3-7.9c-2.2-2.1-5.2-3.1-8.9-3.1h-13.8v20.5H248.3z"></path>
  <path d="M310,85.9c-1.3-0.2-2.5-0.3-3.8-0.3c-8.4,0-12.5,4.1-12.5,12.4V125H280V86.1c0-7.1,5.8-12.9,12.9-12.9
    c0,0,0,0,0,0l0,0v4c-0.1,0.7,0,1.5,0.1,2.2c0.1-0.1,0.2-0.1,0.3-0.2c1.8-2,3.8-3.8,6-5.3c2.7-1.4,5.8-2.1,8.8-1.9h1.9L310,85.9z"></path>
  <path d="M330.9,67.1h-13.7c0-7,5.7-12,12.7-12h1L330.9,67.1z M330.9,125h-13.7V73.2h13.7V125z"></path>
  <path d="M385.6,91.8h-13.7c-0.3-2.4-1.4-4.6-3.2-6.3c-1.6-1.5-3.7-2.3-5.8-2.3c-3.5-0.1-6.8,1.9-8.4,5
    c-1.7,3.1-2.5,6.6-2.4,10.1c0,11.2,3.4,16.8,10.2,16.9c2.3,0,4.6-0.8,6.4-2.4c1.9-1.7,3-4.1,3.2-6.6h13.8c-0.6,5.7-3.4,11-7.8,14.7
    c-4.5,3.7-10.1,5.8-16,5.7c-7.8,0-13.7-2.5-17.9-7.6c-3.9-4.7-5.8-11-5.8-18.9c0-8.4,1.9-15.1,5.6-20c4.2-5.5,10.4-8.3,18.6-8.3
    c6.5,0,11.8,1.7,16,5C382.7,80.5,385.2,85.5,385.6,91.8z"></path>
  <path d="M442,102.7h-35.6c0.3,4.2,1.7,7.5,4.1,9.8c2,1.9,4.8,3,7.6,2.9c2.1,0,4.1-0.5,5.9-1.6c1.6-0.9,2.9-2.4,3.4-4.2
    h14c-1.3,4.9-4.3,9.2-8.4,12.2c-4.2,2.9-9.2,4.4-14.3,4.3c-17.3,0-25.9-9.4-25.9-28.2c0-8,2.2-14.3,6.6-19.1
    c4.4-4.8,10.5-7.1,18.4-7.1C433.9,71.9,442,82.1,442,102.7z M428,94.1c-0.1-3.1-1.4-6-3.5-8.3c-1.8-1.9-4.4-3-7-3
    c-2.5,0-5,1-6.7,2.8c-2.2,2.3-3.6,5.3-3.9,8.5L428,94.1z"></path>
  <path d="M499,120.2c-4.3,3.2-10.4,4.8-18.5,4.8H449V76.3c0-11.7,9.5-21.1,21.1-21.1l0,0h13.2c3.9-0.1,7.7,0.7,11.3,2.2
    c3,1.5,5.5,3.9,7.1,6.9c1.7,3,2.7,6.5,2.7,10c0,6.6-2.8,11-8.5,13.1c3.4,1.2,6.3,3.6,8.1,6.7c1.8,3.1,2.7,6.5,2.6,10.1
    C506.6,111.2,504.1,116.5,499,120.2z M490.4,74.9c0-3-1.1-5.1-3.2-6.3c-1.6-0.8-3.9-1.3-7.2-1.3h-16.9v15.1h17.8
    c2.3,0.1,4.6-0.5,6.6-1.8C489.4,79.4,490.5,77.2,490.4,74.9L490.4,74.9z M489.2,96.4c-2.2-1.4-4.7-2.2-7.3-2.1h-18.7V113h18.6
    c3,0.1,6-1,8.1-3.2c1.8-1.8,2.8-4.3,2.7-6.8C492.6,100.4,491.4,97.9,489.2,96.4L489.2,96.4z"></path>
  <path d="M543.7,85.9c-1.3-0.2-2.5-0.3-3.8-0.3c-8.4,0-12.5,4.1-12.5,12.4V125h-13.7V86.1c0-7.1,5.8-12.9,12.9-12.9l0,0
    l0,0v4c-0.1,0.7,0,1.5,0.1,2.2c0.1-0.1,0.2-0.1,0.3-0.2c1.8-2,3.8-3.8,6-5.3c2.7-1.4,5.8-2.1,8.8-1.9h1.8L543.7,85.9z"></path>
  <path d="M596.9,102.7h-35.6c0.3,4.2,1.7,7.5,4.1,9.8c2,1.9,4.8,3,7.6,2.9c2.1,0,4.1-0.5,5.9-1.6
    c1.6-0.9,2.9-2.4,3.4-4.2h14c-1.3,4.9-4.3,9.2-8.4,12.2c-4.2,2.9-9.2,4.4-14.3,4.3c-17.3,0-25.9-9.4-25.9-28.2
    c0-8,2.2-14.3,6.6-19.1c4.4-4.8,10.5-7.1,18.4-7.1C588.8,71.8,596.9,82.1,596.9,102.7z M582.9,94.1c-0.1-3.1-1.4-6-3.5-8.3
    c-1.8-1.9-4.4-3-7-3c-2.5,0-5,1-6.7,2.8c-2.2,2.3-3.6,5.3-3.9,8.5L582.9,94.1z"></path>
  <path d="M650.4,125h-12.7c-0.6-1.3-1-2.7-1.3-4.2c-3.2,3.5-8.2,5.2-15.1,5.2c-4.8,0-8.7-1.1-11.8-3.3
    c-3.6-2.6-5.4-6.3-5.4-11.3c0-7.1,2.8-11.9,8.3-14.6c2.5-1.2,7.7-2.3,15.5-3.3c5.5-0.7,8.3-2.2,8.3-4.5c0-1.9-0.9-3.7-2.5-4.8
    c-1.7-1.2-3.7-1.8-5.8-1.8c-2.1-0.1-4.2,0.6-5.9,1.8c-1.8,1.4-3,3.5-3.1,5.7h-13.1c0.1-3.6,1.2-7.1,3-10.2c2-2.8,4.8-5,8.1-6
    c3.7-1.3,7.7-2,11.7-1.9c14.7,0.1,22,7.2,22,21.1L650.4,125z M635.9,99.7c-1.4,1.1-3.8,2-7.2,2.6c-3.9,0.7-6.4,1.4-7.6,2
    c-2.4,1.2-3.6,3.4-3.6,6.4c0,3.9,2,5.8,6.1,5.8c2,0,4-0.5,5.8-1.3c1.7-0.7,3.3-1.8,4.6-3.2c1.3-1.7,2-4.2,2-7.5c0-0.6,0-1.4-0.1-2.5
    C635.9,101,635.9,100.2,635.9,99.7z"></path>
  <path d="M704.5,125h-15.3l-11.3-23.2l-6.7,6.9V125h-13.7V68.1c0-7.1,5.8-12.9,12.9-12.9c0,0,0,0,0,0h0.8v37.6L687.5,74
    c0.4-0.5,1.1-0.8,1.8-0.8h15.7l-17.2,19.1L704.5,125z"></path>
  <path d="M757.9,102.7h-35.6c0.3,4.2,1.7,7.5,4,9.8c2,1.9,4.8,3,7.6,2.9c2.1,0,4.1-0.5,5.9-1.6c1.7-0.9,2.9-2.4,3.5-4.2
    h14c-1.3,4.9-4.3,9.2-8.4,12.2c-4.2,2.9-9.2,4.4-14.3,4.3c-17.3,0-25.9-9.4-25.9-28.2c0-8,2.2-14.3,6.6-19.1
    c4.4-4.8,10.5-7.1,18.4-7.1C749.8,71.8,757.9,82.1,757.9,102.7z M743.9,94.1c-0.1-3.1-1.4-6-3.5-8.3c-1.8-1.9-4.4-3-7-3
    c-2.5,0-4.9,1-6.7,2.8c-2.2,2.3-3.6,5.3-3.9,8.5L743.9,94.1z"></path>
  <path d="M795,85.9c-1.3-0.2-2.5-0.3-3.8-0.3c-8.4,0-12.5,4.1-12.5,12.4V125H765V86.1c0-7.1,5.8-12.9,12.9-12.9l0,0l0,0
    v4c-0.1,0.7,0,1.5,0.1,2.2c0.1-0.1,0.2-0.1,0.3-0.2c1.8-2,3.8-3.8,6-5.3c2.7-1.4,5.8-2.1,8.8-1.9h1.8L795,85.9z"></path>
</svg>